<mxfile host="app.diagrams.net" agent="Mozilla/5.0 (Windows NT 10.0; Win64; x64) AppleWebKit/537.36 (KHTML, like Gecko) Chrome/137.0.0.0 Safari/537.36" version="27.1.6">
  <diagram name="第 1 页" id="C0grphwBuT5nrtr26YMs">
    <mxGraphModel dx="2066" dy="1111" grid="1" gridSize="10" guides="1" tooltips="1" connect="1" arrows="1" fold="1" page="1" pageScale="1" pageWidth="827" pageHeight="1169" math="0" shadow="0">
      <root>
        <mxCell id="0" />
        <mxCell id="1" parent="0" />
        <mxCell id="UZdIwau76gTkTRf2nX4t-52" value="" style="rounded=0;whiteSpace=wrap;html=1;fillColor=#FFE6CC;" parent="1" vertex="1">
          <mxGeometry x="1170" y="120" width="240" height="920" as="geometry" />
        </mxCell>
        <mxCell id="UZdIwau76gTkTRf2nX4t-51" value="" style="rounded=0;whiteSpace=wrap;html=1;fillColor=#CCCCFF;" parent="1" vertex="1">
          <mxGeometry x="930" y="120" width="240" height="920" as="geometry" />
        </mxCell>
        <mxCell id="UZdIwau76gTkTRf2nX4t-50" value="" style="rounded=0;whiteSpace=wrap;html=1;fillColor=#D4E1F5;" parent="1" vertex="1">
          <mxGeometry x="580" y="120" width="350" height="920" as="geometry" />
        </mxCell>
        <mxCell id="UZdIwau76gTkTRf2nX4t-49" value="" style="rounded=0;whiteSpace=wrap;html=1;fillColor=#E6FFCC;" parent="1" vertex="1">
          <mxGeometry x="350" y="120" width="230" height="920" as="geometry" />
        </mxCell>
        <mxCell id="z6uMGKgwcrjYF7hSnrwi-1" value="销售管理" style="rounded=0;whiteSpace=wrap;html=1;fontStyle=1;fontSize=14;" parent="1" vertex="1">
          <mxGeometry x="350" y="120" width="230" height="50" as="geometry" />
        </mxCell>
        <mxCell id="UZdIwau76gTkTRf2nX4t-4" value="财务管理" style="rounded=0;whiteSpace=wrap;html=1;fontSize=14;fontStyle=1" parent="1" vertex="1">
          <mxGeometry x="1170" y="120" width="240" height="50" as="geometry" />
        </mxCell>
        <mxCell id="UZdIwau76gTkTRf2nX4t-16" value="" style="edgeStyle=orthogonalEdgeStyle;rounded=0;orthogonalLoop=1;jettySize=auto;html=1;entryX=0;entryY=0.75;entryDx=0;entryDy=0;" parent="1" source="UZdIwau76gTkTRf2nX4t-5" target="UZdIwau76gTkTRf2nX4t-15" edge="1">
          <mxGeometry relative="1" as="geometry" />
        </mxCell>
        <mxCell id="UZdIwau76gTkTRf2nX4t-5" value="追加、预投" style="rounded=0;whiteSpace=wrap;html=1;" parent="1" vertex="1">
          <mxGeometry x="404" y="250" width="110" height="40" as="geometry" />
        </mxCell>
        <mxCell id="UZdIwau76gTkTRf2nX4t-8" value="" style="edgeStyle=orthogonalEdgeStyle;rounded=0;orthogonalLoop=1;jettySize=auto;html=1;" parent="1" source="UZdIwau76gTkTRf2nX4t-6" target="UZdIwau76gTkTRf2nX4t-7" edge="1">
          <mxGeometry relative="1" as="geometry" />
        </mxCell>
        <mxCell id="UZdIwau76gTkTRf2nX4t-6" value="客户管理" style="rounded=0;whiteSpace=wrap;html=1;" parent="1" vertex="1">
          <mxGeometry x="404" y="380" width="110" height="40" as="geometry" />
        </mxCell>
        <mxCell id="UZdIwau76gTkTRf2nX4t-26" style="edgeStyle=orthogonalEdgeStyle;rounded=0;orthogonalLoop=1;jettySize=auto;html=1;entryX=0;entryY=0.75;entryDx=0;entryDy=0;" parent="1" source="UZdIwau76gTkTRf2nX4t-7" target="UZdIwau76gTkTRf2nX4t-15" edge="1">
          <mxGeometry relative="1" as="geometry" />
        </mxCell>
        <mxCell id="UZdIwau76gTkTRf2nX4t-56" value="" style="edgeStyle=orthogonalEdgeStyle;rounded=0;orthogonalLoop=1;jettySize=auto;html=1;" parent="1" source="UZdIwau76gTkTRf2nX4t-7" target="UZdIwau76gTkTRf2nX4t-55" edge="1">
          <mxGeometry relative="1" as="geometry" />
        </mxCell>
        <mxCell id="UZdIwau76gTkTRf2nX4t-7" value="销售订单" style="rounded=0;whiteSpace=wrap;html=1;" parent="1" vertex="1">
          <mxGeometry x="404" y="500" width="110" height="40" as="geometry" />
        </mxCell>
        <mxCell id="UZdIwau76gTkTRf2nX4t-12" value="" style="edgeStyle=orthogonalEdgeStyle;rounded=0;orthogonalLoop=1;jettySize=auto;html=1;exitX=0.5;exitY=1;exitDx=0;exitDy=0;entryX=0;entryY=0.5;entryDx=0;entryDy=0;" parent="1" source="UZdIwau76gTkTRf2nX4t-9" target="UZdIwau76gTkTRf2nX4t-11" edge="1">
          <mxGeometry relative="1" as="geometry" />
        </mxCell>
        <mxCell id="UZdIwau76gTkTRf2nX4t-9" value="销售出货" style="rounded=0;whiteSpace=wrap;html=1;" parent="1" vertex="1">
          <mxGeometry x="404" y="850" width="110" height="40" as="geometry" />
        </mxCell>
        <mxCell id="UZdIwau76gTkTRf2nX4t-14" value="" style="edgeStyle=orthogonalEdgeStyle;rounded=0;orthogonalLoop=1;jettySize=auto;html=1;exitX=0.5;exitY=1;exitDx=0;exitDy=0;" parent="1" source="UZdIwau76gTkTRf2nX4t-11" target="UZdIwau76gTkTRf2nX4t-13" edge="1">
          <mxGeometry relative="1" as="geometry" />
        </mxCell>
        <mxCell id="UZdIwau76gTkTRf2nX4t-11" value="收付款管理" style="rounded=0;whiteSpace=wrap;html=1;" parent="1" vertex="1">
          <mxGeometry x="1232" y="890" width="110" height="45" as="geometry" />
        </mxCell>
        <mxCell id="UZdIwau76gTkTRf2nX4t-13" value="发票管理" style="rounded=0;whiteSpace=wrap;html=1;" parent="1" vertex="1">
          <mxGeometry x="1232" y="970" width="110" height="45" as="geometry" />
        </mxCell>
        <mxCell id="UZdIwau76gTkTRf2nX4t-18" value="" style="edgeStyle=orthogonalEdgeStyle;rounded=0;orthogonalLoop=1;jettySize=auto;html=1;" parent="1" source="UZdIwau76gTkTRf2nX4t-15" target="UZdIwau76gTkTRf2nX4t-17" edge="1">
          <mxGeometry relative="1" as="geometry" />
        </mxCell>
        <mxCell id="UZdIwau76gTkTRf2nX4t-15" value="工程数据" style="rounded=0;whiteSpace=wrap;html=1;" parent="1" vertex="1">
          <mxGeometry x="607" y="240" width="110" height="40" as="geometry" />
        </mxCell>
        <mxCell id="UZdIwau76gTkTRf2nX4t-20" value="" style="edgeStyle=orthogonalEdgeStyle;rounded=0;orthogonalLoop=1;jettySize=auto;html=1;" parent="1" source="UZdIwau76gTkTRf2nX4t-17" target="UZdIwau76gTkTRf2nX4t-19" edge="1">
          <mxGeometry relative="1" as="geometry" />
        </mxCell>
        <mxCell id="UZdIwau76gTkTRf2nX4t-17" value="生产计划（mps）" style="rounded=0;whiteSpace=wrap;html=1;" parent="1" vertex="1">
          <mxGeometry x="607" y="346" width="110" height="40" as="geometry" />
        </mxCell>
        <mxCell id="UZdIwau76gTkTRf2nX4t-22" value="" style="edgeStyle=orthogonalEdgeStyle;rounded=0;orthogonalLoop=1;jettySize=auto;html=1;" parent="1" source="UZdIwau76gTkTRf2nX4t-19" target="UZdIwau76gTkTRf2nX4t-21" edge="1">
          <mxGeometry relative="1" as="geometry" />
        </mxCell>
        <mxCell id="UZdIwau76gTkTRf2nX4t-25" value="" style="edgeStyle=orthogonalEdgeStyle;rounded=0;orthogonalLoop=1;jettySize=auto;html=1;entryX=0;entryY=0.5;entryDx=0;entryDy=0;" parent="1" source="UZdIwau76gTkTRf2nX4t-19" target="UZdIwau76gTkTRf2nX4t-24" edge="1">
          <mxGeometry relative="1" as="geometry" />
        </mxCell>
        <mxCell id="UZdIwau76gTkTRf2nX4t-19" value="物料需求（MRP）" style="rounded=0;whiteSpace=wrap;html=1;" parent="1" vertex="1">
          <mxGeometry x="607" y="416" width="110" height="40" as="geometry" />
        </mxCell>
        <mxCell id="UZdIwau76gTkTRf2nX4t-37" value="" style="edgeStyle=orthogonalEdgeStyle;rounded=0;orthogonalLoop=1;jettySize=auto;html=1;" parent="1" source="UZdIwau76gTkTRf2nX4t-21" target="UZdIwau76gTkTRf2nX4t-36" edge="1">
          <mxGeometry relative="1" as="geometry" />
        </mxCell>
        <mxCell id="UZdIwau76gTkTRf2nX4t-46" style="edgeStyle=orthogonalEdgeStyle;rounded=0;orthogonalLoop=1;jettySize=auto;html=1;" parent="1" source="UZdIwau76gTkTRf2nX4t-21" target="UZdIwau76gTkTRf2nX4t-27" edge="1">
          <mxGeometry relative="1" as="geometry" />
        </mxCell>
        <mxCell id="UZdIwau76gTkTRf2nX4t-21" value="生产订单" style="rounded=0;whiteSpace=wrap;html=1;" parent="1" vertex="1">
          <mxGeometry x="607" y="517" width="110" height="40" as="geometry" />
        </mxCell>
        <mxCell id="UZdIwau76gTkTRf2nX4t-42" style="edgeStyle=orthogonalEdgeStyle;rounded=0;orthogonalLoop=1;jettySize=auto;html=1;entryX=1;entryY=0.5;entryDx=0;entryDy=0;" parent="1" source="UZdIwau76gTkTRf2nX4t-23" target="UZdIwau76gTkTRf2nX4t-9" edge="1">
          <mxGeometry relative="1" as="geometry" />
        </mxCell>
        <mxCell id="UZdIwau76gTkTRf2nX4t-43" value="出库" style="edgeLabel;html=1;align=center;verticalAlign=middle;resizable=0;points=[];" parent="UZdIwau76gTkTRf2nX4t-42" vertex="1" connectable="0">
          <mxGeometry x="0.2541" y="3" relative="1" as="geometry">
            <mxPoint as="offset" />
          </mxGeometry>
        </mxCell>
        <mxCell id="UZdIwau76gTkTRf2nX4t-23" value="库存管理" style="rounded=0;whiteSpace=wrap;html=1;" parent="1" vertex="1">
          <mxGeometry x="716" y="850" width="110" height="40" as="geometry" />
        </mxCell>
        <mxCell id="UZdIwau76gTkTRf2nX4t-33" value="" style="edgeStyle=orthogonalEdgeStyle;rounded=0;orthogonalLoop=1;jettySize=auto;html=1;" parent="1" source="UZdIwau76gTkTRf2nX4t-24" target="UZdIwau76gTkTRf2nX4t-32" edge="1">
          <mxGeometry relative="1" as="geometry" />
        </mxCell>
        <mxCell id="UZdIwau76gTkTRf2nX4t-24" value="物料采购单" style="rounded=0;whiteSpace=wrap;html=1;" parent="1" vertex="1">
          <mxGeometry x="807" y="416" width="110" height="40" as="geometry" />
        </mxCell>
        <mxCell id="UZdIwau76gTkTRf2nX4t-29" value="" style="edgeStyle=orthogonalEdgeStyle;rounded=0;orthogonalLoop=1;jettySize=auto;html=1;" parent="1" source="UZdIwau76gTkTRf2nX4t-27" target="UZdIwau76gTkTRf2nX4t-28" edge="1">
          <mxGeometry relative="1" as="geometry" />
        </mxCell>
        <mxCell id="UZdIwau76gTkTRf2nX4t-27" value="作业计划" style="rounded=0;whiteSpace=wrap;html=1;" parent="1" vertex="1">
          <mxGeometry x="995" y="517" width="110" height="40" as="geometry" />
        </mxCell>
        <mxCell id="UZdIwau76gTkTRf2nX4t-31" value="" style="edgeStyle=orthogonalEdgeStyle;rounded=0;orthogonalLoop=1;jettySize=auto;html=1;" parent="1" source="UZdIwau76gTkTRf2nX4t-28" target="UZdIwau76gTkTRf2nX4t-30" edge="1">
          <mxGeometry relative="1" as="geometry" />
        </mxCell>
        <mxCell id="UZdIwau76gTkTRf2nX4t-28" value="生成调度" style="rounded=0;whiteSpace=wrap;html=1;" parent="1" vertex="1">
          <mxGeometry x="995" y="580" width="110" height="40" as="geometry" />
        </mxCell>
        <mxCell id="UZdIwau76gTkTRf2nX4t-45" style="edgeStyle=orthogonalEdgeStyle;rounded=0;orthogonalLoop=1;jettySize=auto;html=1;entryX=1;entryY=0.5;entryDx=0;entryDy=0;" parent="1" source="UZdIwau76gTkTRf2nX4t-30" target="UZdIwau76gTkTRf2nX4t-36" edge="1">
          <mxGeometry relative="1" as="geometry" />
        </mxCell>
        <mxCell id="UZdIwau76gTkTRf2nX4t-30" value="进度反馈" style="rounded=0;whiteSpace=wrap;html=1;" parent="1" vertex="1">
          <mxGeometry x="995" y="650" width="110" height="40" as="geometry" />
        </mxCell>
        <mxCell id="UZdIwau76gTkTRf2nX4t-34" style="edgeStyle=orthogonalEdgeStyle;rounded=0;orthogonalLoop=1;jettySize=auto;html=1;entryX=1;entryY=0.5;entryDx=0;entryDy=0;" parent="1" source="UZdIwau76gTkTRf2nX4t-32" target="UZdIwau76gTkTRf2nX4t-23" edge="1">
          <mxGeometry relative="1" as="geometry" />
        </mxCell>
        <mxCell id="UZdIwau76gTkTRf2nX4t-32" value="收货、验货" style="rounded=0;whiteSpace=wrap;html=1;" parent="1" vertex="1">
          <mxGeometry x="807" y="595" width="110" height="40" as="geometry" />
        </mxCell>
        <mxCell id="UZdIwau76gTkTRf2nX4t-40" value="" style="edgeStyle=orthogonalEdgeStyle;rounded=0;orthogonalLoop=1;jettySize=auto;html=1;" parent="1" source="UZdIwau76gTkTRf2nX4t-36" target="UZdIwau76gTkTRf2nX4t-39" edge="1">
          <mxGeometry relative="1" as="geometry" />
        </mxCell>
        <mxCell id="UZdIwau76gTkTRf2nX4t-36" value="进度管理" style="rounded=0;whiteSpace=wrap;html=1;" parent="1" vertex="1">
          <mxGeometry x="607" y="650" width="110" height="40" as="geometry" />
        </mxCell>
        <mxCell id="UZdIwau76gTkTRf2nX4t-41" style="edgeStyle=orthogonalEdgeStyle;rounded=0;orthogonalLoop=1;jettySize=auto;html=1;entryX=0.5;entryY=0;entryDx=0;entryDy=0;" parent="1" source="UZdIwau76gTkTRf2nX4t-39" target="UZdIwau76gTkTRf2nX4t-23" edge="1">
          <mxGeometry relative="1" as="geometry" />
        </mxCell>
        <mxCell id="UZdIwau76gTkTRf2nX4t-39" value="检验、入库" style="rounded=0;whiteSpace=wrap;html=1;" parent="1" vertex="1">
          <mxGeometry x="607" y="730" width="110" height="40" as="geometry" />
        </mxCell>
        <mxCell id="UZdIwau76gTkTRf2nX4t-53" value="ERP" style="rounded=0;whiteSpace=wrap;html=1;fontStyle=1;fontSize=14;" parent="1" vertex="1">
          <mxGeometry x="580" y="120" width="350" height="50" as="geometry" />
        </mxCell>
        <mxCell id="UZdIwau76gTkTRf2nX4t-54" value="&lt;font style=&quot;&quot;&gt;MES制造执行系统&lt;/font&gt;" style="rounded=0;whiteSpace=wrap;html=1;fontStyle=1;fontSize=14;" parent="1" vertex="1">
          <mxGeometry x="930" y="120" width="240" height="50" as="geometry" />
        </mxCell>
        <mxCell id="UZdIwau76gTkTRf2nX4t-57" style="edgeStyle=orthogonalEdgeStyle;rounded=0;orthogonalLoop=1;jettySize=auto;html=1;" parent="1" source="UZdIwau76gTkTRf2nX4t-55" target="UZdIwau76gTkTRf2nX4t-9" edge="1">
          <mxGeometry relative="1" as="geometry" />
        </mxCell>
        <mxCell id="UZdIwau76gTkTRf2nX4t-55" value="合同管理" style="rounded=0;whiteSpace=wrap;html=1;" parent="1" vertex="1">
          <mxGeometry x="404" y="660" width="110" height="40" as="geometry" />
        </mxCell>
      </root>
    </mxGraphModel>
  </diagram>
</mxfile>
